<?xml version="1.0" encoding="utf-8"?><!-- Uploaded to: SVG Repo, www.svgrepo.com, Generator: SVG Repo Mixer Tools -->
<svg width="800px" height="800px" viewBox="0 0 24 24" fill="none" xmlns="http://www.w3.org/2000/svg">
<path d="M10 12H14M12 10V14M19.9592 15H16.6C16.0399 15 15.7599 15 15.546 15.109C15.3578 15.2049 15.2049 15.3578 15.109 15.546C15 15.7599 15 16.0399 15 16.6V19.9592M20 14.1031V7.2C20 6.07989 20 5.51984 19.782 5.09202C19.5903 4.71569 19.2843 4.40973 18.908 4.21799C18.4802 4 17.9201 4 16.8 4H7.2C6.0799 4 5.51984 4 5.09202 4.21799C4.71569 4.40973 4.40973 4.71569 4.21799 5.09202C4 5.51984 4 6.0799 4 7.2V16.8C4 17.9201 4 18.4802 4.21799 18.908C4.40973 19.2843 4.71569 19.5903 5.09202 19.782C5.51984 20 6.0799 20 7.2 20H14.1031C14.5923 20 14.8369 20 15.067 19.9447C15.2711 19.8957 15.4662 19.8149 15.6451 19.7053C15.847 19.5816 16.0199 19.4086 16.3658 19.0627L19.0627 16.3658C19.4086 16.0199 19.5816 15.847 19.7053 15.6451C19.8149 15.4662 19.8957 15.2711 19.9447 15.067C20 14.8369 20 14.5923 20 14.1031Z" stroke="#000000" stroke-width="2" stroke-linecap="round" stroke-linejoin="round"/>
</svg>